# xmcd
#
# Track frame offsets:
#	183
#	17820
#	31808
#	45478
#	62493
#	76565
#	89250
#	103430
#	114658
#	130325
#	145515
#	156108
#	168128
#	182235
#	196085
#	207350
#
# Disc length: 2952 seconds
#
# Revision: 2
# Processed by: cddbd v1.5.2PL0 Copyright (c) Steve Scherf et al.
# Submitted via: EasyCDDAExtractor 16.0.6.1
#
DISCID=c90b8610
DTITLE=Ella Fitzgerald - JB-015 I Got The Rhythm
DYEAR=1900
DGENRE=Blues
TTITLE0=Love Is Here To Stay
TTITLE1=I Got Rhythm
TTITLE2=That Certain Feeling
TTITLE3=The Half Of It, Dearie, Blues
TTITLE4=My Cousin in Milwaukee
TTITLE5=I Can't Be Bothered Now
TTITLE6=The Can't Take That Away From Me
TTITLE7=Clap Yo'Hands
TTITLE8='s Wonderful
TTITLE9=Fascinating Rhythm
TTITLE10=Soon
TTITLE11=Bidin' My Time
TTITLE12=Of Thee i Sing Baby
TTITLE13=Things Are Looking Up
TTITLE14=By Strauss
TTITLE15=Shall We Dance
EXTD=
EXTT0=
EXTT1=
EXTT2=
EXTT3=
EXTT4=
EXTT5=
EXTT6=
EXTT7=
EXTT8=
EXTT9=
EXTT10=
EXTT11=
EXTT12=
EXTT13=
EXTT14=
EXTT15=
PLAYORDER=
